<svg width="92" height="30" viewBox="0 0 92 30" fill="none" xmlns="http://www.w3.org/2000/svg">
<path d="M10.5137 17.1115C10.8728 17.3649 11.2049 17.5911 11.5102 17.7903C11.8335 17.9715 12.1117 18.1706 12.3449 18.3875C12.8112 18.8213 13.0432 19.3532 13.0408 19.9832L13.0233 24.5731C13.0202 25.3831 12.7299 26.003 12.1522 26.4328C11.6647 26.827 11.025 27.0225 10.233 27.0195L1.62005 26.9867L1.63908 21.9917L3.58307 21.9991L3.57103 25.1581L10.861 25.1859L10.881 19.9209L3.82365 15.547C3.19503 15.1846 2.67444 14.8136 2.26188 14.434C1.86739 14.0365 1.67142 13.5048 1.67395 12.8388L1.68691 9.43682C1.69096 8.37483 1.94574 7.6468 2.45124 7.25272C2.88454 6.91237 3.63219 6.74421 4.69418 6.74826L12.8481 6.77933L12.8291 11.7743L10.8851 11.7669L10.8971 8.60791L3.85019 8.58106L3.83373 12.901L10.5137 17.1115Z" fill="#00E7FF"/>
<path d="M62.532 25.223L62.525 27.059L59.447 27.0472L52.7084 16.9505L52.677 25.1854L54.432 25.1921L54.425 27.0281L48.7551 27.0065L48.7621 25.1705L50.463 25.177L50.5262 8.59911L48.8252 8.59263L48.8322 6.75664L54.5022 6.77825L54.4952 8.61423L52.6322 8.60714L52.6035 16.1401L59.5241 6.79738L62.4401 6.80849L62.4331 8.64448L60.6241 8.63758L54.9781 16.5001L60.804 25.2164L62.532 25.223Z" fill="#00E7FF"/>
<path d="M19.336 26.184V27H17.02V26.184H17.596V21.744L15.208 23.244V26.184H15.796V27H13.48V26.184H14.236V18.816H13.48V18H15.208V22.272L17.2 21.024C17.352 20.928 17.532 20.88 17.74 20.88C17.948 20.88 18.136 20.964 18.304 21.132C18.48 21.292 18.568 21.524 18.568 21.828V26.184H19.336ZM25.2563 26.184V27H21.0803C20.6723 27 20.3963 26.92 20.2523 26.76C20.1243 26.616 20.0603 26.344 20.0603 25.944V25.5C20.0603 25.212 20.0963 25.016 20.1683 24.912C20.2723 24.76 20.5083 24.572 20.8763 24.348L23.5163 22.704V21.816H21.1643V22.512H20.3963V21H23.3963C23.8043 21 24.0883 21.088 24.2483 21.264C24.4163 21.44 24.5003 21.696 24.5003 22.032V26.184H25.2563ZM23.5163 23.664L21.0203 25.224V26.184H23.5163V23.664ZM30.3703 20.88C30.9943 20.88 31.3063 21.188 31.3063 21.804V26.184H32.0743V27H29.7583V26.184H30.3343V21.72L27.9463 23.22V26.184H28.5343V27H26.2183V26.184H26.9743V21.804H26.2183V21H27.9463V22.248L29.9383 21C30.0663 20.92 30.2103 20.88 30.3703 20.88ZM40.1786 20.88C40.8026 20.88 41.1146 21.188 41.1146 21.804V26.184H41.8826V27H39.5666V26.184H40.1426V21.72L37.9466 23.088V26.184H38.5346V27H36.3866V26.184H36.9626L36.9746 26.136V21.708L34.7666 23.088V26.184H35.3546V27H33.0386V26.184H33.7946V21.804H33.0386V21H34.7666V22.14L36.5786 21C36.7066 20.92 36.8506 20.88 37.0106 20.88C37.6346 20.88 37.9466 21.188 37.9466 21.804V22.128L39.7466 21C39.8746 20.92 40.0186 20.88 40.1786 20.88ZM44.5512 27.024C43.9272 27.024 43.6152 26.716 43.6152 26.1V21.804H42.8472V20.988H44.5872V26.184L46.9752 24.684V21.804H46.3872V20.988H47.9472V26.184H48.7032V27H46.9752V25.656L44.9832 26.904C44.8552 26.984 44.7112 27.024 44.5512 27.024Z" fill="white"/>
<path d="M69.336 26.184V27H67.02V26.184H67.596V21.744L65.208 23.244V26.184H65.796V27H63.48V26.184H64.236V18.816H63.48V18H65.208V22.272L67.2 21.024C67.352 20.928 67.532 20.88 67.74 20.88C67.948 20.88 68.136 20.964 68.304 21.132C68.48 21.292 68.568 21.524 68.568 21.828V26.184H69.336ZM75.2563 26.184V27H71.0803C70.6723 27 70.3963 26.92 70.2523 26.76C70.1243 26.616 70.0603 26.344 70.0603 25.944V25.5C70.0603 25.212 70.0963 25.016 70.1683 24.912C70.2723 24.76 70.5083 24.572 70.8763 24.348L73.5163 22.704V21.816H71.1643V22.512H70.3963V21H73.3963C73.8043 21 74.0883 21.088 74.2483 21.264C74.4163 21.44 74.5003 21.696 74.5003 22.032V26.184H75.2563ZM73.5163 23.664L71.0203 25.224V26.184H73.5163V23.664Z" fill="white"/>
<path d="M65.184 16.024C64.56 16.024 64.248 15.716 64.248 15.1V10.804H63.48V9.988H65.22V15.184L67.608 13.684V10.804H67.02V9.988H68.58V15.184H69.336V16H67.608V14.656L65.616 15.904C65.488 15.984 65.344 16.024 65.184 16.024ZM77.4403 9.88C78.0643 9.88 78.3763 10.188 78.3763 10.804V15.184H79.1443V16H76.8283V15.184H77.4043V10.72L75.2083 12.088V15.184H75.7963V16H73.6483V15.184H74.2243L74.2363 15.136V10.708L72.0283 12.088V15.184H72.6163V16H70.3003V15.184H71.0563V10.804H70.3003V10H72.0283V11.14L73.8403 10C73.9683 9.92 74.1123 9.88 74.2723 9.88C74.8963 9.88 75.2083 10.188 75.2083 10.804V11.128L77.0083 10C77.1363 9.92 77.2803 9.88 77.4403 9.88ZM85.0649 15.184V16H80.8889C80.4809 16 80.2049 15.92 80.0609 15.76C79.9329 15.616 79.8689 15.344 79.8689 14.944V14.5C79.8689 14.212 79.9049 14.016 79.9769 13.912C80.0809 13.76 80.3169 13.572 80.6849 13.348L83.3249 11.704V10.816H80.9729V11.512H80.2049V10H83.2049C83.6129 10 83.8969 10.088 84.0569 10.264C84.2249 10.44 84.3089 10.696 84.3089 11.032V15.184H85.0649ZM83.3249 12.664L80.8289 14.224V15.184H83.3249V12.664ZM89.6629 10C90.2869 10 90.5989 10.308 90.5989 10.924V11.992H89.6269V10.828L87.7549 12.016V15.184H88.3429V16H86.0269V15.184H86.7829V10.804H86.0269V9.988H87.7549V11.044L89.2309 10.12C89.3589 10.04 89.5029 10 89.6629 10Z" fill="white"/>
</svg>
