<svg width="113" height="29" viewBox="0 0 113 29" fill="none" xmlns="http://www.w3.org/2000/svg">
<path d="M10.5137 17.1308C10.8727 17.3841 11.2049 17.6104 11.5101 17.8096C11.8334 17.9908 12.1117 18.1899 12.3449 18.4068C12.8112 18.8405 13.0432 19.3724 13.0408 20.0024L13.0233 24.5924C13.0202 25.4024 12.7298 26.0223 12.1522 26.4521C11.6647 26.8462 11.0249 27.0418 10.2329 27.0388L1.62 27.006L1.63904 22.011L3.58303 22.0184L3.57098 25.1774L10.8609 25.2052L10.881 19.9402L3.82363 15.5663C3.19501 15.2039 2.67442 14.8329 2.26186 14.4533C1.86737 14.0558 1.6714 13.5241 1.67394 12.8581L1.68691 9.45611C1.69096 8.39411 1.94574 7.66608 2.45124 7.272C2.88454 6.93165 3.63219 6.76349 4.69418 6.76754L12.8481 6.79858L12.8291 11.7935L10.8851 11.7861L10.8971 8.62717L3.85019 8.60034L3.83372 12.9203L10.5137 17.1308Z" fill="#00E7FF"/>
<path d="M84.5319 24.2229L84.5249 26.0589L81.4469 26.0472L74.7084 15.9505L74.677 24.1854L76.432 24.1921L76.425 26.0281L70.755 26.0065L70.762 24.1705L72.463 24.177L72.5262 7.5991L70.8252 7.59263L70.8322 5.75664L76.5022 5.77823L76.4952 7.61421L74.6322 7.60712L74.6035 15.1401L81.5241 5.79735L84.4401 5.80845L84.4331 7.64444L82.6241 7.63755L76.9781 15.5001L82.8039 24.2164L84.5319 24.2229Z" fill="#00E7FF"/>
<path d="M19.336 25.184V26H17.02V25.184H17.596V20.744L15.208 22.244V25.184H15.796V26H13.48V25.184H14.236V17.816H13.48V17H15.208V21.272L17.2 20.024C17.352 19.928 17.532 19.88 17.74 19.88C17.948 19.88 18.136 19.964 18.304 20.132C18.48 20.292 18.568 20.524 18.568 20.828V25.184H19.336ZM25.2563 25.184V26H21.0803C20.6723 26 20.3963 25.92 20.2523 25.76C20.1243 25.616 20.0603 25.344 20.0603 24.944V24.5C20.0603 24.212 20.0963 24.016 20.1683 23.912C20.2723 23.76 20.5083 23.572 20.8763 23.348L23.5163 21.704V20.816H21.1643V21.512H20.3963V20H23.3963C23.8043 20 24.0883 20.088 24.2483 20.264C24.4163 20.44 24.5003 20.696 24.5003 21.032V25.184H25.2563ZM23.5163 22.664L21.0203 24.224V25.184H23.5163V22.664ZM30.3703 19.88C30.9943 19.88 31.3063 20.188 31.3063 20.804V25.184H32.0743V26H29.7583V25.184H30.3343V20.72L27.9463 22.22V25.184H28.5343V26H26.2183V25.184H26.9743V20.804H26.2183V20H27.9463V21.248L29.9383 20C30.0663 19.92 30.2103 19.88 30.3703 19.88ZM40.1786 19.88C40.8026 19.88 41.1146 20.188 41.1146 20.804V25.184H41.8826V26H39.5666V25.184H40.1426V20.72L37.9466 22.088V25.184H38.5346V26H36.3866V25.184H36.9626L36.9746 25.136V20.708L34.7666 22.088V25.184H35.3546V26H33.0386V25.184H33.7946V20.804H33.0386V20H34.7666V21.14L36.5786 20C36.7066 19.92 36.8506 19.88 37.0106 19.88C37.6346 19.88 37.9466 20.188 37.9466 20.804V21.128L39.7466 20C39.8746 19.92 40.0186 19.88 40.1786 19.88ZM44.5512 26.024C43.9272 26.024 43.6152 25.716 43.6152 25.1V20.804H42.8472V19.988H44.5872V25.184L46.9752 23.684V20.804H46.3872V19.988H47.9472V25.184H48.7032V26H46.9752V24.656L44.9832 25.904C44.8552 25.984 44.7112 26.024 44.5512 26.024ZM55.0315 25.184V26H53.9995L51.3955 22.976V25.184H52.1155V26H49.6675V25.184H50.4355V17.816H49.6675V17H51.3475V22.688L54.0835 20H55.0195V20.816H54.3595L52.4035 22.82L54.4075 25.184H55.0315ZM61.6055 25.184V26H59.2895V25.184H59.8655V20.744L57.4775 22.244V25.184H58.0655V26H55.7495V25.184H56.5055V17.816H55.7495V17H57.4775V21.272L59.4695 20.024C59.6215 19.928 59.8015 19.88 60.0095 19.88C60.2175 19.88 60.4055 19.964 60.5735 20.132C60.7495 20.292 60.8375 20.524 60.8375 20.828V25.184H61.6055ZM67.5258 25.184V26H63.3498C62.9418 26 62.6658 25.92 62.5218 25.76C62.3938 25.616 62.3298 25.344 62.3298 24.944V24.5C62.3298 24.212 62.3658 24.016 62.4378 23.912C62.5418 23.76 62.7778 23.572 63.1458 23.348L65.7858 21.704V20.816H63.4338V21.512H62.6658V20H65.6658C66.0738 20 66.3578 20.088 66.5178 20.264C66.6858 20.44 66.7698 20.696 66.7698 21.032V25.184H67.5258ZM65.7858 22.664L63.2898 24.224V25.184H65.7858V22.664Z" fill="white"/>
<path d="M86.184 26.024C85.56 26.024 85.248 25.716 85.248 25.1V20.804H84.48V19.988H86.22V25.184L88.608 23.684V20.804H88.02V19.988H89.58V25.184H90.336V26H88.608V24.656L86.616 25.904C86.488 25.984 86.344 26.024 86.184 26.024ZM98.4403 19.88C99.0643 19.88 99.3763 20.188 99.3763 20.804V25.184H100.144V26H97.8283V25.184H98.4043V20.72L96.2083 22.088V25.184H96.7963V26H94.6483V25.184H95.2243L95.2363 25.136V20.708L93.0283 22.088V25.184H93.6163V26H91.3003V25.184H92.0563V20.804H91.3003V20H93.0283V21.14L94.8403 20C94.9683 19.92 95.1123 19.88 95.2723 19.88C95.8963 19.88 96.2083 20.188 96.2083 20.804V21.128L98.0083 20C98.1363 19.92 98.2803 19.88 98.4403 19.88ZM106.065 25.184V26H101.889C101.481 26 101.205 25.92 101.061 25.76C100.933 25.616 100.869 25.344 100.869 24.944V24.5C100.869 24.212 100.905 24.016 100.977 23.912C101.081 23.76 101.317 23.572 101.685 23.348L104.325 21.704V20.816H101.973V21.512H101.205V20H104.205C104.613 20 104.897 20.088 105.057 20.264C105.225 20.44 105.309 20.696 105.309 21.032V25.184H106.065ZM104.325 22.664L101.829 24.224V25.184H104.325V22.664ZM110.663 20C111.287 20 111.599 20.308 111.599 20.924V21.992H110.627V20.828L108.755 22.016V25.184H109.343V26H107.027V25.184H107.783V20.804H107.027V19.988H108.755V21.044L110.231 20.12C110.359 20.04 110.503 20 110.663 20Z" fill="white"/>
</svg>
